<?xml version="1.0" encoding="UTF-8"?>
<svg viewBox="0 0 524.4094125 372.0472375" xmlns="http://www.w3.org/2000/svg" xmlns:xlink="http://www.w3.org/1999/xlink">
 <defs>
  <linearGradient id="a">
   <stop offset="0"/>
   <stop stop-color="#c9c9c9" offset="1"/>
  </linearGradient>
  <linearGradient id="b" x1="229.64" x2="192.5" gradientUnits="userSpaceOnUse">
   <stop stop-color="#515151" offset="0"/>
   <stop stop-color="#c2c2c2" offset="1"/>
  </linearGradient>
  <linearGradient id="d" x1="253.25" x2="275.2" gradientTransform="matrix(.68313 -2.2395e-16 1.4022e-15 1.9967 165.93 .90954)" gradientUnits="userSpaceOnUse" xlink:href="#a"/>
  <linearGradient id="c" x1="253.25" x2="275.2" gradientTransform="matrix(-.68313 2.4024e-16 -1.4499e-15 -1.9967 403 1157.1)" gradientUnits="userSpaceOnUse" xlink:href="#a"/>
 </defs>
 <g transform="matrix(2.465 0 0 2.465 -443.27 -1165.4)" fill-rule="evenodd">
  <path transform="matrix(-.99804 .062631 -.062631 -.99804 613.54 1120)" d="m370.71 570.93a76.429 82.143 0 1 1 -152.15 -11.186" fill="#fff" stroke="#000" stroke-linecap="round" stroke-width="4.19"/>
  <path transform="matrix(1.5423e-17 1 1 -1.5423e-17 -94.267 363.85)" d="m232.14 447.54a16.964 12.679 0 1 1 -33.771 -1.7265" fill="url(#b)"/>
  <path d="m338.93 557.17c2-6.6113 13-7.3072 15 0v43.843c-2 6.9593-13.5 6.6113-15 0v-43.843z" fill="url(#d)"/>
  <path transform="matrix(-1.5423e-17 1 -1 -1.5423e-17 662.84 363.85)" d="m232.14 447.54a16.964 12.679 0 1 1 -33.771 -1.7265" fill="url(#b)"/>
  <path d="m230 600.88c-2 6.6113-13 7.3072-15 0v-43.843c2-6.9593 13.5-6.6113 15 0v43.843z" fill="url(#c)"/>
 </g>
</svg>
